<svg width="1280" height="1508" viewBox="0 0 1280 1508" fill="none" xmlns="http://www.w3.org/2000/svg">
<rect x="139.001" y="0.0120392" width="885.667" height="290.333" fill="url(#paint0_linear)"/>
<rect y="1507.21" width="1507.21" height="495" transform="rotate(-90 0 1507.21)" fill="url(#paint1_linear)"/>
<mask id="mask0" mask-type="alpha" maskUnits="userSpaceOnUse" x="0" y="-1" width="495" height="1509">
<rect y="1507.21" width="1507.21" height="495" transform="rotate(-90 0 1507.21)" fill="#563CCF"/>
</mask>
<g mask="url(#mask0)">
<rect width="249.764" height="761.78" transform="matrix(0.619033 -0.785365 0.619033 0.785365 -169.125 1025.74)" fill="url(#paint2_linear)"/>
<rect width="249.764" height="1040.68" transform="matrix(0.619033 -0.785365 0.619033 0.785365 -160.875 648.936)" fill="url(#paint3_linear)"/>
<rect width="249.764" height="1040.68" transform="matrix(0.619033 -0.785365 0.619033 0.785365 -148.5 276.32)" fill="url(#paint4_linear)"/>
</g>
<rect x="770.006" y="1507.24" width="1507.21" height="509.667" transform="rotate(-90 770.006 1507.24)" fill="url(#paint5_linear)"/>
<mask id="mask1" mask-type="alpha" maskUnits="userSpaceOnUse" x="770" y="0" width="510" height="1508">
<rect x="770.006" y="1507.24" width="1507.21" height="509.667" transform="rotate(-90 770.006 1507.24)" fill="#563CCF"/>
</mask>
<g mask="url(#mask1)">
<rect width="252.625" height="770.507" transform="matrix(0.630155 -0.776469 0.630155 0.776469 595.871 1025.77)" fill="url(#paint6_linear)"/>
<rect width="252.625" height="1052.61" transform="matrix(0.630155 -0.776469 0.630155 0.776469 604.365 648.964)" fill="url(#paint7_linear)"/>
<rect width="252.625" height="1052.61" transform="matrix(0.630155 -0.776469 0.630155 0.776469 582.001 443.168)" fill="url(#paint8_linear)"/>
</g>
<defs>
<linearGradient id="paint0_linear" x1="147.612" y1="290.345" x2="950.345" y2="-138.959" gradientUnits="userSpaceOnUse">
<stop stop-color="#6045E2"/>
<stop offset="1" stop-color="#6F50FF"/>
</linearGradient>
<linearGradient id="paint1_linear" x1="14.6535" y1="2002.21" x2="1381.86" y2="1272.38" gradientUnits="userSpaceOnUse">
<stop stop-color="#6045E2"/>
<stop offset="1" stop-color="#6F50FF"/>
</linearGradient>
<linearGradient id="paint2_linear" x1="280.97" y1="1183.67" x2="628.191" y2="951.107" gradientUnits="userSpaceOnUse">
<stop stop-color="#6045E2"/>
<stop offset="1" stop-color="#6F50FF"/>
</linearGradient>
<linearGradient id="paint3_linear" x1="107.938" y1="13.7186" x2="-205.95" y2="53.5331" gradientUnits="userSpaceOnUse">
<stop stop-color="#6045E2"/>
<stop offset="1" stop-color="#6F50FF"/>
</linearGradient>
<linearGradient id="paint4_linear" x1="-92.7541" y1="134.847" x2="-454.706" y2="99.7189" gradientUnits="userSpaceOnUse">
<stop stop-color="#5C42DC"/>
<stop offset="1" stop-color="#6F50FF"/>
</linearGradient>
<linearGradient id="paint5_linear" x1="784.66" y1="2016.91" x2="2169.28" y2="1299.05" gradientUnits="userSpaceOnUse">
<stop stop-color="#6045E2"/>
<stop offset="1" stop-color="#6F50FF"/>
</linearGradient>
<linearGradient id="paint6_linear" x1="284.189" y1="1197.23" x2="635.388" y2="962.004" gradientUnits="userSpaceOnUse">
<stop stop-color="#6045E2"/>
<stop offset="1" stop-color="#6F50FF"/>
</linearGradient>
<linearGradient id="paint7_linear" x1="109.175" y1="13.8758" x2="-208.309" y2="54.1464" gradientUnits="userSpaceOnUse">
<stop stop-color="#6045E2"/>
<stop offset="1" stop-color="#6F50FF"/>
</linearGradient>
<linearGradient id="paint8_linear" x1="-93.8167" y1="136.392" x2="-459.916" y2="100.861" gradientUnits="userSpaceOnUse">
<stop stop-color="#5C42DC"/>
<stop offset="1" stop-color="#6F50FF"/>
</linearGradient>
</defs>
</svg>
