<svg width="28" height="28" viewBox="0 0 28 28" fill="none" xmlns="http://www.w3.org/2000/svg">
<rect width="28" height="28" rx="14" fill="#CBBFFF"/>
<g clip-path="url(#clip0)">
<rect width="12.9231" height="12.9231" transform="translate(7.53857 7.53845)" fill="#CBBFFF"/>
<path d="M20.0485 12.9686C19.8765 12.9686 19.5441 13.2421 19.3909 13.6309H19.0502C18.9715 12.5435 18.5482 11.5516 17.8888 10.7632L18.5351 10.1181C18.9189 10.2849 19.3476 10.2437 19.4693 10.1223C19.6306 9.9613 19.4206 9.49053 19.0001 9.07086C18.5796 8.65118 18.1079 8.4415 17.9466 8.60256C17.8249 8.72396 17.7837 9.15185 17.9508 9.53494L17.3096 10.1749C16.53 9.50239 15.5427 9.06363 14.4567 8.96672V8.61904C14.8463 8.46607 15.1203 8.13439 15.1203 7.96272C15.1203 7.73497 14.6382 7.55035 14.0436 7.55035C13.4489 7.55035 12.9668 7.73497 12.9668 7.96272C12.9668 8.13439 13.2408 8.46607 13.6304 8.61904V8.95957C12.541 9.03804 11.5471 9.4605 10.7572 10.1187L10.1109 9.47363C10.278 9.09051 10.2367 8.66262 10.1151 8.54124C9.95379 8.38021 9.48211 8.58987 9.06163 9.00954C8.64114 9.42922 8.43107 9.89999 8.59242 10.061C8.71405 10.1824 9.14278 10.2236 9.52662 10.0568L10.1678 10.6967C9.49402 11.4748 9.05442 12.4602 8.95733 13.5441H8.60932C8.45606 13.1553 8.12373 12.8819 7.95172 12.8819C7.72355 12.8818 7.53857 13.363 7.53857 13.9565C7.53857 14.55 7.72355 15.0311 7.95175 15.0311C8.12375 15.0311 8.45609 14.7577 8.60934 14.3688H8.95008C9.02871 15.4562 9.452 16.4481 10.1115 17.2365L9.46513 17.8816C9.08128 17.7148 8.65256 17.756 8.53092 17.8774C8.36958 18.0384 8.57965 18.5092 9.00013 18.9289C9.42061 19.3485 9.89229 19.5582 10.0536 19.3972C10.1753 19.2758 10.2165 18.8479 10.0494 18.4648L10.6906 17.8248C11.4701 18.4973 12.4575 18.9361 13.5435 19.033V19.3807C13.1539 19.5337 12.8799 19.8654 12.8799 20.0371C12.8799 20.2648 13.362 20.4494 13.9566 20.4494C14.5513 20.4494 15.0333 20.2648 15.0333 20.0371C15.0333 19.8654 14.7594 19.5337 14.3698 19.3807V19.0402C15.4592 18.9617 16.453 18.5393 17.2429 17.8811L17.8893 18.5262C17.7222 18.9093 17.7634 19.3372 17.885 19.4585C18.0464 19.6196 18.5181 19.4099 18.9385 18.9902C19.359 18.5706 19.5691 18.0998 19.4078 17.9388C19.2861 17.8174 18.8574 17.7762 18.4736 17.943L17.8324 17.303C18.5062 16.525 18.9458 15.5395 19.0428 14.4556H19.3908C19.5441 14.8445 19.8764 15.1179 20.0484 15.1179C20.2766 15.1179 20.4616 14.6368 20.4616 14.0433C20.4616 13.4498 20.2767 12.9686 20.0485 12.9686Z" fill="#6045E2"/>
<path d="M12.0147 13.1679C12.641 13.1679 13.1486 12.6616 13.1486 12.037C13.1486 11.4125 12.641 10.9062 12.0147 10.9062C11.3885 10.9062 10.8809 11.4125 10.8809 12.037C10.8809 12.6616 11.3885 13.1679 12.0147 13.1679Z" fill="#6045E2"/>
<path d="M12.0145 10.9062C11.8775 10.9062 11.7461 10.9304 11.6245 10.9749C12.0586 11.1334 12.3684 11.5491 12.3684 12.037C12.3684 12.5248 12.0586 12.9405 11.6245 13.0991C11.7461 13.1436 11.8775 13.1678 12.0145 13.1678C12.6408 13.1678 13.1484 12.6615 13.1484 12.037C13.1484 11.4124 12.6408 10.9062 12.0145 10.9062Z" fill="#6045E2"/>
<path d="M17.2144 15.5103C17.5275 15.5103 17.7814 15.2571 17.7814 14.9449C17.7814 14.6326 17.5275 14.3795 17.2144 14.3795C16.9013 14.3795 16.6475 14.6326 16.6475 14.9449C16.6475 15.2571 16.9013 15.5103 17.2144 15.5103Z" fill="#6045E2"/>
<path d="M17.2144 14.3795C17.1206 14.3795 17.0322 14.4023 16.9543 14.4425C17.1366 14.5365 17.2613 14.7261 17.2613 14.9449C17.2613 15.1636 17.1366 15.3532 16.9543 15.4473C17.0322 15.4875 17.1206 15.5103 17.2144 15.5103C17.5275 15.5103 17.7813 15.2572 17.7813 14.9449C17.7813 14.6326 17.5275 14.3795 17.2144 14.3795Z" fill="#6045E2"/>
<path d="M15.3373 17.6568C15.8014 17.6568 16.1775 17.2816 16.1775 16.8188C16.1775 16.356 15.8014 15.9808 15.3373 15.9808C14.8733 15.9808 14.4971 16.356 14.4971 16.8188C14.4971 17.2816 14.8733 17.6568 15.3373 17.6568Z" fill="#6045E2"/>
<path d="M15.3373 15.9809C15.1965 15.9809 15.0639 16.0156 14.9473 16.0767C15.2149 16.2168 15.3975 16.4965 15.3975 16.8189C15.3975 17.1412 15.2149 17.4209 14.9473 17.5611C15.0639 17.6221 15.1965 17.6568 15.3373 17.6568C15.8013 17.6568 16.1775 17.2817 16.1775 16.8189C16.1775 16.3561 15.8013 15.9809 15.3373 15.9809Z" fill="#6045E2"/>
<path d="M20.0485 12.9687C19.8765 12.9687 19.5441 13.2422 19.3909 13.631H19.0501C18.9715 12.5437 18.5482 11.5517 17.8888 10.7633L18.5351 10.1182C18.9189 10.285 19.3476 10.2439 19.4693 10.1225C19.6306 9.96142 19.4205 9.49065 19.0001 9.07098C18.5796 8.6513 18.1079 8.44162 17.9465 8.60268C17.8249 8.72408 17.7837 9.15198 17.9507 9.53507L17.3096 10.175C16.53 9.50251 15.5427 9.06375 14.4567 8.96684V8.61917C14.8463 8.46619 15.1203 8.13451 15.1203 7.96284C15.1203 7.73509 14.6382 7.55048 14.0435 7.55048C13.4489 7.55048 12.9668 7.73509 12.9668 7.96284C12.9668 8.13451 13.2408 8.46619 13.6304 8.61917V8.95969C13.5566 8.96499 13.4832 8.97204 13.4103 8.98049C15.9627 9.24244 17.9537 11.399 17.9537 14.0206C17.9537 16.5964 16.0316 18.7232 13.5435 19.0451V19.3809C13.1539 19.5338 12.8799 19.8655 12.8799 20.0372C12.8799 20.2649 13.362 20.4496 13.9566 20.4496C14.5513 20.4496 15.0333 20.2649 15.0333 20.0372C15.0333 19.8655 14.7593 19.5338 14.3698 19.3809V19.0403C15.4592 18.9619 16.453 18.5394 17.2429 17.8812L17.8893 18.5263C17.7222 18.9094 17.7634 19.3373 17.885 19.4587C18.0464 19.6197 18.5181 19.4101 18.9385 18.9904C19.359 18.5707 19.5691 18.0999 19.4078 17.9389C19.2861 17.8175 18.8574 17.7763 18.4735 17.9431L17.8324 17.3032C18.5062 16.5251 18.9457 15.5397 19.0428 14.4558H19.3908C19.5441 14.8446 19.8764 15.1181 20.0484 15.1181C20.2766 15.1181 20.4616 14.637 20.4616 14.0434C20.4616 13.4499 20.2767 12.9687 20.0485 12.9687Z" fill="#6045E2"/>
</g>
<defs>
<clipPath id="clip0">
<rect width="12.9231" height="12.9231" fill="white" transform="translate(7.53857 7.53845)"/>
</clipPath>
</defs>
</svg>
